<?xml version="1.0" encoding="utf-8"?>
<svg viewBox="0 0 500 500" xmlns="http://www.w3.org/2000/svg">
  <defs>
    <linearGradient id="brain-gradient" x1="0%" y1="0%" x2="100%" y2="100%">
      <stop offset="0%" style="stop-color:#FF6B6B;stop-opacity:1" />
      <stop offset="100%" style="stop-color:#FFB88C;stop-opacity:1" />
    </linearGradient>
  </defs>
  <circle cx="250" cy="250" r="240" fill="#3CC7EA" style="opacity: 0.1"/>
  
  <!-- Brain shape with detailed folds -->
  <g transform="translate(50, 50) scale(0.8)">
    <!-- Left hemisphere -->
    <path d="M200,100 C150,100 100,150 100,200 C100,250 150,300 200,300 
             C220,300 240,290 250,270 C260,290 280,300 300,300 
             C350,300 400,250 400,200 C400,150 350,100 300,100 
             C280,100 260,110 250,130 C240,110 220,100 200,100 Z" 
          fill="url(#brain-gradient)" stroke="#FF6B6B" stroke-width="8"/>
    
    <!-- Brain folds (left) -->
    <path d="M150,150 Q200,180 150,210 Q200,240 150,270" 
          fill="none" stroke="#FF6B6B" stroke-width="6" stroke-linecap="round"/>
    <path d="M180,120 Q230,150 180,180 Q230,210 180,240" 
          fill="none" stroke="#FF6B6B" stroke-width="6" stroke-linecap="round"/>
          
    <!-- Brain folds (right) -->
    <path d="M350,150 Q300,180 350,210 Q300,240 350,270" 
          fill="none" stroke="#FF6B6B" stroke-width="6" stroke-linecap="round"/>
    <path d="M320,120 Q270,150 320,180 Q270,210 320,240" 
          fill="none" stroke="#FF6B6B" stroke-width="6" stroke-linecap="round"/>
    
    <!-- Central fold -->
    <path d="M250,100 Q270,200 250,300" 
          fill="none" stroke="#FF6B6B" stroke-width="8" stroke-linecap="round"/>
  </g>
  
  <!-- Glow effect -->
  <g transform="translate(0, 0)" style="opacity: 0.6">
    <circle cx="250" cy="250" r="230" 
            fill="none" stroke="#4FD1C5" stroke-width="2" 
            style="filter: blur(8px)"/>
  </g>
</svg>
